<svg xmlns="http://www.w3.org/2000/svg" version="1.1" xmlns:xlink="http://www.w3.org/1999/xlink" xmlns:svgjs="http://svgjs.dev/svgjs" width="1500" height="1500" viewBox="0 0 1500 1500"><g transform="matrix(1,0,0,1,-0.14331983805664095,-0.1417812808404051)"><svg viewBox="0 0 247 247" data-background-color="#ffffff" preserveAspectRatio="xMidYMid meet" height="1500" width="1500" xmlns="http://www.w3.org/2000/svg" xmlns:xlink="http://www.w3.org/1999/xlink"><g id="tight-bounds" transform="matrix(1,0,0,1,0.02359999999998763,0.023452577474984082)"><svg viewBox="0 0 246.95280000000002 246.95280000000002" height="246.95280000000002" width="246.95280000000002"><g><svg viewBox="0 0 246.95280000000002 246.95280000000002" height="246.95280000000002" width="246.95280000000002"><g><svg viewBox="0 0 246.95280000000002 246.95280000000002" height="246.95280000000002" width="246.95280000000002"><g><svg viewBox="0 0 246.95280000000002 246.95280000000002" height="246.95280000000002" width="246.95280000000002"><g id="textblocktransform"><svg viewBox="0 0 246.95280000000002 246.95280000000002" height="246.95280000000002" width="246.95280000000002" id="textblock"><g><svg viewBox="0 0 246.95280000000002 246.95280000000002" height="246.95280000000002" width="246.95280000000002"><g transform="matrix(1,0,0,1,50.71723353624782,50.71723353624782)"><svg viewBox="0 0 145.5183329275044 145.5183329275044" height="145.5183329275044" width="145.5183329275044"><g id="icon-0"><circle r="73" cx="72.7591664637522" cy="72.7591664637522" fill="#1ebbd7" data-fill-palette-color="accent"></circle><svg xmlns="http://www.w3.org/2000/svg" xmlns:xlink="http://www.w3.org/1999/xlink" version="1.1" x="21.827749939125656" y="21.827749939125656" viewBox="5 10.272448979591836 90.02911484120277 79.42755102040817" enable-background="new 0 0 100 100" xml:space="preserve" height="101.86283304925308" width="101.86283304925308" class="icon-xg-0" data-fill-palette-color="quaternary" id="xg-0"><path d="M91.7 18.5l-31.8-8.2c0 0-6.1-0.6-3.3 3.8l6.9 10.5L52 35.4C47.1 32 41.2 30 34.8 30 18.4 30 5 43.4 5 59.9c0 16.5 13.4 29.8 29.8 29.8s29.8-13.4 29.8-29.8c0-1.4-0.1-2.9-0.3-4.3L79 48.3l7.2 11.4c0 0 2 4.3 3.3 0l5.4-37.7C95.8 18.9 91.7 18.5 91.7 18.5zM10.2 58.9c0-14.2 11.5-25.6 25.6-25.6 5.2 0 10 1.5 14 4.2L36 50.3c-2.6-1.3-5.5-2-8.6-2-7.6 0-14.2 4.5-17.2 11C10.2 59.1 10.2 59 10.2 58.9zM11.7 66.2c0.3-8.7 7.4-15.6 16.2-15.6 2.3 0 4.4 0.5 6.4 1.3l-10.5 9.8c-1-0.4-2.1-0.5-3.3-0.5C16.7 61.2 13.4 63.3 11.7 66.2zM27.8 83c-0.3 0-0.5 0-0.8 0-1.4-0.5-2.8-1.1-4-1.9 4-1.1 7-4.5 7.4-8.7L44 65.7c0 0.4 0 0.8 0 1.1C44 75.8 36.8 83 27.8 83zM35.8 84.5c-0.1 0-0.3 0-0.4 0 6.5-3 11-9.6 11-17.2 0-0.9-0.1-1.8-0.2-2.7l15.2-7.5c0 0.6 0.1 1.2 0.1 1.8C61.5 73.1 50 84.5 35.8 84.5zM86.8 54.6L81 44.1 16.6 76.8c-2.6-1.8-1.9-3.7-1.9-3.7l53-48.9L60.9 14l28.9 8.9L86.8 54.6z" fill="#ffffff" data-fill-palette-color="quaternary"></path></svg></g></svg></g><g id="text-0"><path d="M32.503 91.712l-24.872-2.755 1.078-2.463c0.114-0.26 0.277-0.449 0.491-0.567 0.205-0.114 0.424-0.156 0.656-0.124v0l17.183 2.135c0.314 0.039 0.642 0.094 0.983 0.166 0.35 0.069 0.709 0.149 1.078 0.24v0c-0.312-0.221-0.614-0.438-0.908-0.651-0.288-0.21-0.544-0.421-0.769-0.632v0l-12.956-11.794c-0.149-0.143-0.258-0.335-0.329-0.577-0.07-0.242-0.05-0.49 0.062-0.743v0l0.376-0.86c0.114-0.26 0.276-0.446 0.487-0.558 0.202-0.109 0.422-0.153 0.66-0.133v0l17.447 1.533c0.612 0.05 1.288 0.152 2.03 0.307v0c-0.311-0.206-0.605-0.402-0.883-0.587-0.286-0.182-0.545-0.372-0.775-0.571v0l-13.22-11.191c-0.16-0.133-0.272-0.32-0.336-0.559-0.07-0.242-0.05-0.49 0.062-0.744v0l1.008-2.304 18.901 16.402-1.164 2.658-19.117-1.768c-0.362-0.025-0.774-0.082-1.235-0.171v0c0.183 0.144 0.361 0.278 0.532 0.402 0.168 0.13 0.315 0.254 0.439 0.372v0l14.255 12.879z" fill="#1e82d6" data-fill-palette-color="primary"></path><path d="M51.719 39.67v0c1.345 1.185 2.388 2.483 3.13 3.894 0.747 1.415 1.183 2.865 1.309 4.351 0.121 1.491-0.073 2.979-0.583 4.464-0.51 1.476-1.347 2.874-2.511 4.194v0c-1.16 1.316-2.44 2.319-3.84 3.011-1.405 0.687-2.853 1.061-4.343 1.123-1.494 0.067-2.99-0.182-4.487-0.746-1.488-0.564-2.905-1.439-4.25-2.624v0c-1.34-1.181-2.385-2.477-3.136-3.887-0.747-1.415-1.183-2.87-1.31-4.365-0.13-1.49 0.057-2.975 0.562-4.456 0.505-1.48 1.338-2.878 2.498-4.193v0c1.164-1.321 2.449-2.324 3.854-3.011 1.409-0.692 2.863-1.069 4.362-1.132 1.495-0.058 2.991 0.195 4.489 0.759 1.497 0.564 2.916 1.436 4.256 2.618zM49.525 42.158v0c-1.098-0.968-2.217-1.688-3.357-2.16-1.14-0.472-2.255-0.699-3.346-0.68-1.091 0.018-2.144 0.277-3.158 0.775-1.02 0.494-1.956 1.224-2.809 2.191v0c-0.844 0.958-1.447 1.973-1.809 3.047-0.367 1.069-0.493 2.149-0.379 3.238 0.119 1.084 0.483 2.163 1.095 3.234 0.611 1.072 1.466 2.092 2.563 3.06v0c1.103 0.972 2.222 1.692 3.357 2.16 1.135 0.468 2.248 0.692 3.339 0.673 1.095-0.023 2.148-0.286 3.157-0.788 1.01-0.502 1.937-1.232 2.782-2.19v0c0.853-0.967 1.465-1.984 1.836-3.048 0.372-1.065 0.498-2.14 0.38-3.224-0.119-1.084-0.481-2.16-1.087-3.228-0.606-1.067-1.461-2.087-2.564-3.06z" fill="#1e82d6" data-fill-palette-color="primary"></path><path d="M65.483 32.178l-2.036 1.356 5.528 8.3-2.681 1.786-13.243-19.885 5.619-3.742c1.261-0.84 2.434-1.435 3.517-1.785 1.086-0.359 2.087-0.495 3.005-0.409 0.914 0.081 1.743 0.366 2.487 0.854 0.738 0.492 1.388 1.16 1.949 2.002v0c0.468 0.703 0.794 1.431 0.978 2.184 0.182 0.762 0.226 1.527 0.133 2.294-0.102 0.765-0.34 1.52-0.712 2.264-0.378 0.747-0.893 1.463-1.546 2.145v0c0.461-0.028 0.944 0.057 1.449 0.256v0l11.056 4.037-2.383 1.587c-0.488 0.325-0.978 0.376-1.468 0.152v0l-9.889-3.664c-0.302-0.116-0.577-0.162-0.823-0.137-0.256 0.023-0.569 0.158-0.94 0.405zM57.147 24.075l4.997 7.503 2.817-1.876c0.784-0.522 1.411-1.075 1.882-1.66 0.476-0.588 0.799-1.191 0.969-1.808 0.168-0.608 0.194-1.221 0.076-1.84-0.118-0.619-0.37-1.218-0.756-1.798v0c-0.79-1.186-1.774-1.821-2.953-1.903-1.184-0.079-2.549 0.396-4.094 1.425v0z" fill="#1e82d6" data-fill-palette-color="primary"></path><path d="M81.794 8.214l3.503 9.872 1.149-0.407c0.395-0.14 0.693-0.304 0.893-0.492 0.202-0.181 0.364-0.43 0.484-0.746v0l4.484-11.137c0.138-0.343 0.297-0.608 0.478-0.795 0.172-0.191 0.425-0.346 0.758-0.465v0l2.589-0.918-5.135 12.742c-0.135 0.315-0.269 0.592-0.403 0.831-0.134 0.239-0.292 0.449-0.475 0.63v0c0.324-0.012 0.632 0.036 0.924 0.145 0.286 0.111 0.601 0.266 0.945 0.465v0l12.736 7.488-2.643 0.938c-0.194 0.069-0.367 0.113-0.517 0.132-0.144 0.017-0.278 0.017-0.401-0.001-0.117-0.02-0.232-0.055-0.345-0.104-0.115-0.055-0.23-0.117-0.343-0.186v0l-10.946-6.173c-0.161-0.087-0.309-0.157-0.444-0.212-0.127-0.051-0.27-0.086-0.428-0.105-0.149-0.015-0.316-0.004-0.501 0.034-0.181 0.03-0.396 0.089-0.645 0.178v0l-1.385 0.492 3.658 10.309-3.035 1.077-7.991-22.514z" fill="#1e82d6" data-fill-palette-color="primary"></path><path d="M127.582 14.953l-3.83 0.014 0.032 8.937-3.221 0.012-0.086-23.89 7.051-0.026c1.515-0.005 2.831 0.167 3.948 0.518 1.117 0.344 2.044 0.837 2.781 1.479 0.737 0.642 1.288 1.417 1.653 2.326 0.364 0.914 0.549 1.933 0.553 3.054v0c0.004 1.109-0.189 2.125-0.579 3.049-0.384 0.923-0.948 1.719-1.694 2.385-0.752 0.673-1.682 1.199-2.79 1.577-1.108 0.372-2.381 0.56-3.818 0.566zM123.707 2.567l0.035 9.837 3.831-0.014c0.922-0.003 1.737-0.129 2.445-0.376 0.702-0.248 1.291-0.591 1.767-1.032 0.476-0.44 0.835-0.967 1.077-1.58 0.243-0.613 0.363-1.285 0.361-2.013v0c-0.005-1.522-0.477-2.71-1.416-3.564-0.945-0.854-2.368-1.278-4.27-1.271v0z" fill="#4b91f1" data-fill-palette-color="secondary"></path><path d="M167.082 19.512v0c-0.464 1.732-1.162 3.244-2.095 4.536-0.935 1.298-2.04 2.334-3.315 3.108-1.281 0.772-2.7 1.26-4.257 1.464-1.549 0.2-3.173 0.072-4.874-0.384v0c-1.694-0.454-3.162-1.154-4.404-2.1-1.24-0.953-2.219-2.083-2.938-3.39-0.724-1.309-1.167-2.759-1.328-4.35-0.157-1.584-0.003-3.242 0.46-4.974v0c0.462-1.725 1.157-3.238 2.086-4.538 0.935-1.298 2.044-2.337 3.327-3.115 1.277-0.78 2.69-1.272 4.24-1.478 1.55-0.206 3.173-0.082 4.867 0.372v0c1.7 0.455 3.171 1.159 4.411 2.112 1.246 0.954 2.231 2.089 2.954 3.404 0.717 1.313 1.155 2.766 1.317 4.357 0.161 1.592 0.011 3.25-0.451 4.976zM163.877 18.654v0c0.378-1.414 0.526-2.736 0.441-3.967-0.084-1.231-0.377-2.331-0.879-3.299-0.502-0.969-1.201-1.797-2.098-2.484-0.896-0.694-1.966-1.207-3.213-1.541v0c-1.233-0.33-2.411-0.418-3.533-0.265-1.121 0.147-2.144 0.514-3.069 1.101-0.919 0.589-1.722 1.395-2.409 2.419-0.688 1.024-1.221 2.243-1.6 3.657v0c-0.38 1.42-0.527 2.743-0.441 3.967 0.086 1.225 0.38 2.321 0.881 3.29 0.508 0.97 1.211 1.796 2.111 2.478 0.899 0.681 1.965 1.187 3.198 1.517v0c1.246 0.333 2.428 0.43 3.548 0.288 1.119-0.141 2.138-0.506 3.056-1.094 0.919-0.589 1.721-1.392 2.407-2.41 0.686-1.018 1.22-2.237 1.6-3.657z" fill="#4b91f1" data-fill-palette-color="secondary"></path><path d="M179.915 28.506l-2.121-1.221-4.973 8.644-2.792-1.606 11.914-20.708 5.852 3.366c1.313 0.756 2.368 1.541 3.164 2.356 0.805 0.813 1.372 1.649 1.703 2.509 0.334 0.854 0.448 1.723 0.342 2.607-0.112 0.88-0.421 1.759-0.926 2.637v0c-0.421 0.732-0.928 1.348-1.52 1.847-0.601 0.502-1.266 0.882-1.995 1.14-0.731 0.249-1.512 0.372-2.344 0.37-0.837-0.006-1.707-0.149-2.61-0.43v0c0.231 0.401 0.369 0.871 0.416 1.411v0l1.305 11.698-2.482-1.428c-0.509-0.293-0.772-0.708-0.789-1.246v0l-1.12-10.487c-0.03-0.322-0.111-0.589-0.244-0.798-0.135-0.219-0.395-0.439-0.78-0.661zM183.461 17.434l-4.495 7.814 2.934 1.688c0.816 0.469 1.591 0.785 2.324 0.946 0.739 0.165 1.422 0.186 2.05 0.064 0.619-0.12 1.18-0.37 1.682-0.751 0.502-0.381 0.926-0.873 1.273-1.477v0c0.711-1.235 0.841-2.399 0.391-3.491-0.456-1.095-1.489-2.106-3.099-3.032v0z" fill="#4b91f1" data-fill-palette-color="secondary"></path><path d="M203.548 27.641l13.572 12.873-1.87 1.972-5.6-5.312-14.572 15.361-2.343-2.223 14.571-15.361-5.628-5.339z" fill="#4b91f1" data-fill-palette-color="secondary"></path><path d="M228.231 55.914l-14.5 21.257-1.397-2.08c-0.162-0.241-0.232-0.473-0.212-0.696 0.022-0.233 0.099-0.447 0.231-0.645v0l3.547-5.075-5.977-8.895-6.039 1.366c-0.209 0.047-0.43 0.036-0.663-0.033-0.233-0.069-0.426-0.218-0.581-0.448v0l-1.397-2.08 25.159-5.392zM222.505 56.93l-10.146 2.296 4.974 7.402 5.981-8.528c0.361-0.538 0.849-1.153 1.463-1.846v0c-0.443 0.15-0.857 0.285-1.243 0.404-0.384 0.111-0.727 0.201-1.029 0.272z" fill="#4b91f1" data-fill-palette-color="secondary"></path><path d="M239.322 76.357l-19.65 7.885 3.851 9.596-2.523 1.012-5.053-12.594 22.172-8.897z" fill="#4b91f1" data-fill-palette-color="secondary"></path><path d="M15.406 123.313c0-1.529 1.239-2.768 2.768-2.768 1.529 0 2.768 1.239 2.767 2.768 0 1.529-1.239 2.768-2.767 2.768-1.529 0-2.768-1.239-2.768-2.768z" fill="#1e82d6" data-fill-palette-color="primary"></path><path d="M230.385 123.313c0-1.529 1.239-2.768 2.768-2.768 1.529 0 2.768 1.239 2.768 2.768 0 1.529-1.239 2.768-2.768 2.768-1.529 0-2.768-1.239-2.768-2.768z" fill="#1e82d6" data-fill-palette-color="primary"></path></g><g id="text-1"><path d="M36.35 148.157l3.966 12.126-3.889 0.682-2.092-6.399-5.764 1.886 1.843 5.635-3.641 1.191-1.843-5.636-6.058 1.982 2.234 6.83-3.778 1.236-3.933-12.024z" fill="#1e82d6" data-fill-palette-color="primary"></path><path d="M40.542 172.525l2.406 4.483-18.48 4.695-2.932-5.462 14.06-12.928 2.54 4.73-11.604 9.039z" fill="#1e82d6" data-fill-palette-color="primary"></path><path d="M45.872 195.567c-0.589 0.451-1.117 0.811-1.585 1.081v0l-5.724-7.471c-1.255 1.108-1.983 2.056-2.184 2.843-0.205 0.782-0.017 1.552 0.564 2.31v0c0.38 0.496 0.844 0.901 1.392 1.212 0.542 0.316 1.224 0.585 2.045 0.809v0l-0.961 3.454c-2.369-0.346-4.297-1.489-5.783-3.429v0c-1.581-2.063-2.102-4.149-1.565-6.258 0.532-2.105 2.016-4.091 4.452-5.958v0c2.436-1.867 4.756-2.832 6.958-2.894 2.207-0.067 4.038 0.85 5.493 2.749v0c1.384 1.807 1.826 3.714 1.326 5.722-0.495 2.004-1.971 3.947-4.428 5.83zM43.752 190.733l0.192-0.147c1.254-0.961 2.068-1.78 2.443-2.457 0.371-0.682 0.315-1.338-0.167-1.967v0c-0.424-0.553-1.016-0.765-1.779-0.636-0.758 0.134-1.878 0.708-3.36 1.722v0z" fill="#1e82d6" data-fill-palette-color="primary"></path><path d="M62.21 198.318c0.355 0.338 0.645 0.739 0.87 1.203v0l-4.119 3.063c-0.201-0.387-0.463-0.734-0.784-1.041v0c-0.621-0.591-1.317-0.796-2.088-0.613-0.771 0.183-1.713 0.658-2.825 1.424v0l-6.851 7.193-3.81-3.628 12.76-13.4 3.306 3.149-1.807 2.459c2.272-1.105 4.054-1.041 5.348 0.191z" fill="#1e82d6" data-fill-palette-color="primary"></path><path d="M76.494 209.043l-14.469 12.552c-3.691 3.237-7.645 3.616-11.865 1.136v0l1.588-3.299c1.352 0.617 2.507 0.895 3.465 0.834 0.963-0.057 1.976-0.495 3.04-1.313v0l-1.601-1.102 6.837-17.755 4.367 3.005-6.56 13.836 10.919-10.838z" fill="#1e82d6" data-fill-palette-color="primary"></path><path d="M79.942 226.855l0.152 3.65c-0.737 0.185-1.502 0.216-2.296 0.093-0.797-0.117-1.552-0.35-2.264-0.699v0c-1.604-0.785-2.591-1.835-2.96-3.149-0.36-1.318-0.163-2.747 0.591-4.288v0l4.29-8.766-1.721-0.842 1.625-3.319 1.72 0.842 1.777-3.631 4.99 1.774-2.041 4.17 3.101 1.518-2.128 3.072-2.597-1.271-4.273 8.731c-0.439 0.898-0.283 1.531 0.47 1.899v0c0.417 0.204 0.938 0.276 1.564 0.216z" fill="#1e82d6" data-fill-palette-color="primary"></path><path d="M99.329 217.866c1.262 0.413 2.104 1.191 2.524 2.333 0.42 1.142 0.38 2.476-0.12 4.001v0l-4.303 13.145-5.001-1.637 4.132-12.621c0.375-1.146 0.241-1.824-0.402-2.035v0c-0.637-0.209-1.564 0.268-2.779 1.431v0l-4.002 12.226-5.001-1.637 8.047-24.58 5.172 1.113-3.066 9.367c0.824-0.653 1.621-1.067 2.391-1.243 0.766-0.184 1.568-0.138 2.408 0.137z" fill="#1e82d6" data-fill-palette-color="primary"></path><path d="M107.339 220.462l5.183 0.906-3.184 18.227-5.183-0.906zM111.539 211.426c0.889 0.155 1.554 0.563 1.996 1.223 0.442 0.653 0.587 1.415 0.435 2.285v0c-0.148 0.845-0.547 1.498-1.197 1.961-0.645 0.47-1.403 0.629-2.273 0.477v0c-0.87-0.152-1.532-0.559-1.986-1.221-0.449-0.654-0.599-1.404-0.451-2.249v0c0.152-0.87 0.55-1.537 1.194-2.001 0.651-0.469 1.412-0.627 2.282-0.475z" fill="#1e82d6" data-fill-palette-color="primary"></path><path d="M126.37 221.484c1.327 0.047 2.351 0.561 3.072 1.542 0.72 0.981 1.051 2.273 0.994 3.878v0l-0.492 13.823-5.259-0.188 0.473-13.271c0.043-1.205-0.274-1.82-0.951-1.844v0c-0.67-0.024-1.428 0.691-2.273 2.145v0l-0.458 12.856-5.258-0.187 0.658-18.492 4.563 0.163 0.308 2.208c0.632-0.907 1.318-1.579 2.056-2.018 0.738-0.445 1.594-0.65 2.567-0.615z" fill="#1e82d6" data-fill-palette-color="primary"></path><path d="M146.947 217.031l1.85 3.52c-0.776 0.591-2.161 1.041-4.155 1.352v0c1.078 0.302 1.919 0.801 2.524 1.496 0.603 0.689 0.996 1.62 1.179 2.792v0c0.283 1.816-0.081 3.377-1.092 4.683-1.009 1.312-2.534 2.127-4.573 2.445v0c-0.644 0.1-1.206 0.116-1.686 0.047v0c-0.33 0.312-0.454 0.733-0.371 1.262v0c0.061 0.389 0.228 0.666 0.502 0.832 0.275 0.173 0.734 0.209 1.377 0.109v0l1.854-0.289c1.975-0.308 3.595-0.067 4.86 0.721 1.266 0.795 2.016 1.947 2.252 3.457v0c0.283 1.816-0.198 3.379-1.443 4.689-1.245 1.31-3.173 2.168-5.786 2.575v0c-2.829 0.441-4.859 0.251-6.089-0.569-1.231-0.82-1.996-2.192-2.295-4.116v0l4.616-0.719c0.136 0.873 0.434 1.466 0.893 1.779 0.461 0.32 1.252 0.392 2.374 0.218v0c1.975-0.308 2.848-1.197 2.619-2.669v0c-0.104-0.669-0.37-1.14-0.798-1.413-0.434-0.272-1.039-0.347-1.816-0.226v0l-1.377 0.214c-1.816 0.283-3.187 0.173-4.113-0.328-0.92-0.503-1.466-1.305-1.638-2.408v0c-0.104-0.669-0.029-1.32 0.224-1.953 0.253-0.64 0.643-1.213 1.172-1.719v0c-1.085-0.471-1.914-1.082-2.489-1.835-0.575-0.759-0.959-1.759-1.152-3.002v0c-0.321-2.064 0.057-3.781 1.136-5.15 1.08-1.362 2.713-2.214 4.898-2.554v0c1.446-0.225 2.638-0.6 3.574-1.124 0.943-0.525 1.933-1.231 2.969-2.117zM140.958 223.641c-0.663 0.103-1.125 0.426-1.386 0.97-0.254 0.549-0.294 1.384-0.119 2.505v0c0.332 2.134 1.155 3.099 2.468 2.895v0c0.637-0.099 1.081-0.413 1.331-0.942 0.243-0.534 0.27-1.409 0.081-2.626v0c-0.172-1.102-0.448-1.872-0.83-2.308-0.387-0.429-0.902-0.594-1.545-0.494z" fill="#1e82d6" data-fill-palette-color="primary"></path><path d="M159.107 216.316l4.921-1.864 6.556 17.303-4.92 1.864zM158.112 206.402c0.844-0.32 1.624-0.309 2.341 0.034 0.714 0.336 1.227 0.918 1.539 1.743v0c0.304 0.802 0.294 1.568-0.029 2.297-0.315 0.733-0.886 1.256-1.712 1.57v0c-0.826 0.313-1.603 0.301-2.331-0.038-0.72-0.334-1.231-0.902-1.535-1.704v0c-0.313-0.826-0.311-1.603 0.006-2.33 0.321-0.735 0.895-1.26 1.721-1.572z" fill="#4b91f1" data-fill-palette-color="secondary"></path><path d="M172.641 209.325c0.996-0.543 2.029-0.879 3.098-1.006 1.066-0.133 2.1-0.062 3.102 0.214v0l-0.338 3.401c-1.544-0.164-2.763-0.003-3.657 0.485v0c-0.493 0.269-0.808 0.599-0.947 0.991-0.145 0.395-0.1 0.807 0.135 1.237v0c0.256 0.47 0.637 0.758 1.143 0.864 0.506 0.106 1.459 0.082 2.858-0.072v0c1.682-0.175 3.054-0.064 4.116 0.334 1.065 0.404 1.941 1.237 2.629 2.499v0c0.889 1.63 1.018 3.234 0.388 4.812-0.639 1.575-1.876 2.863-3.71 3.864v0c-1.144 0.624-2.331 0.999-3.561 1.126-1.222 0.13-2.396 0.01-3.523-0.359v0l0.873-3.572c1.769 0.335 3.163 0.225 4.182-0.33v0c0.549-0.299 0.903-0.68 1.063-1.142 0.163-0.456 0.105-0.939-0.173-1.448v0c-0.312-0.572-0.739-0.93-1.28-1.076-0.539-0.14-1.482-0.132-2.83 0.023v0c-1.699 0.185-3.058 0.07-4.077-0.344-1.016-0.408-1.842-1.195-2.478-2.361v0c-0.8-1.466-0.946-2.947-0.439-4.443 0.506-1.495 1.649-2.728 3.426-3.697z" fill="#4b91f1" data-fill-palette-color="secondary"></path><path d="M194.243 193.296c0.984-0.893 2.075-1.24 3.275-1.04 1.2 0.2 2.34 0.894 3.419 2.083v0l9.297 10.241-3.896 3.537-8.926-9.833c-0.81-0.893-1.466-1.112-1.968-0.657v0c-0.497 0.451-0.54 1.492-0.13 3.123v0l8.646 9.525-3.895 3.537-17.385-19.15 3.525-3.945 6.625 7.298c-0.16-1.039-0.126-1.937 0.103-2.693 0.219-0.756 0.656-1.431 1.31-2.026z" fill="#1ebbd7" data-fill-palette-color="accent"></path><path d="M215.773 182.036c0.591 0.449 1.077 0.863 1.461 1.243v0l-5.692 7.494c1.4 0.918 2.506 1.369 3.319 1.355 0.809-0.009 1.502-0.394 2.079-1.154v0c0.378-0.498 0.645-1.052 0.801-1.662 0.161-0.606 0.241-1.335 0.24-2.187v0l3.584 0.014c0.292 2.376-0.3 4.537-1.779 6.484v0c-1.572 2.069-3.446 3.124-5.621 3.163-2.171 0.044-4.478-0.863-6.923-2.72v0c-2.444-1.857-3.987-3.839-4.629-5.945-0.647-2.111-0.248-4.119 1.199-6.025v0c1.377-1.813 3.1-2.743 5.169-2.791 2.064-0.052 4.328 0.858 6.792 2.731zM211.671 185.357l-0.192-0.146c-1.258-0.956-2.263-1.525-3.015-1.707-0.756-0.177-1.374 0.05-1.854 0.681v0c-0.421 0.555-0.469 1.182-0.143 1.883 0.33 0.696 1.179 1.624 2.548 2.786v0z" fill="#1ebbd7" data-fill-palette-color="accent"></path><path d="M214.114 165.551c0.232-0.432 0.543-0.817 0.931-1.157v0l4.041 3.164c-0.321 0.296-0.586 0.64-0.797 1.032v0c-0.407 0.755-0.42 1.48-0.04 2.175 0.38 0.695 1.086 1.478 2.119 2.349v0l8.747 4.709-2.494 4.633-16.293-8.771 2.164-4.02 2.849 1.095c-1.665-1.9-2.074-3.636-1.227-5.209z" fill="#1ebbd7" data-fill-palette-color="accent"></path><path d="M229.171 151.857c0.699 0.248 1.289 0.494 1.77 0.74v0l-3.144 8.871c1.613 0.448 2.804 0.542 3.574 0.281 0.768-0.255 1.311-0.832 1.629-1.731v0c0.209-0.59 0.295-1.199 0.258-1.828-0.031-0.627-0.177-1.345-0.436-2.156v0l3.419-1.076c1.001 2.175 1.094 4.414 0.277 6.717v0c-0.868 2.449-2.333 4.024-4.393 4.723-2.055 0.702-4.529 0.54-7.422-0.486v0c-2.893-1.025-4.966-2.444-6.219-4.256-1.259-1.814-1.489-3.849-0.689-6.104v0c0.76-2.145 2.119-3.556 4.075-4.23 1.95-0.677 4.384-0.499 7.301 0.535zM226.274 156.269l-0.228-0.081c-1.489-0.528-2.62-0.764-3.392-0.709-0.774 0.061-1.294 0.465-1.559 1.212v0c-0.233 0.656-0.087 1.269 0.437 1.838 0.526 0.563 1.617 1.189 3.275 1.879v0z" fill="#1ebbd7" data-fill-palette-color="accent"></path></g></svg></g></svg></g></svg></g></svg></g></svg></g><defs></defs></svg><rect width="246.95280000000002" height="246.95280000000002" fill="none" stroke="none" visibility="hidden"></rect></g></svg></g></svg>